<?xml version="1.0" standalone="no"?>
<!DOCTYPE svg PUBLIC "-//W3C//DTD SVG 20010904//EN"
 "http://www.w3.org/TR/2001/REC-SVG-20010904/DTD/svg10.dtd">
<svg version="1.0" xmlns="http://www.w3.org/2000/svg"
 width="1050.000000pt" height="486.000000pt" viewBox="0 0 1050.000000 486.000000"
 preserveAspectRatio="xMidYMid meet">
<metadata>
Created by potrace 1.16, written by Peter Selinger 2001-2019
</metadata>
<g transform="translate(0.000000,486.000000) scale(0.100000,-0.100000)"
fill="#000000" stroke="none">
<path d="M2834 4011 c-136 -37 -185 -62 -634 -321 -140 -81 -290 -166 -332
-190 -76 -43 -89 -60 -44 -60 69 0 220 -63 420 -177 81 -46 155 -82 163 -79 8
3 100 56 204 117 277 161 346 193 423 192 240 -4 391 -251 285 -469 -51 -106
-171 -174 -307 -174 -169 -1 -290 -45 -591 -218 -639 -367 -655 -375 -691
-374 -65 3 -231 -19 -298 -40 -138 -42 -265 -122 -368 -229 -104 -110 -165
-215 -211 -366 -23 -78 -26 -104 -26 -233 0 -129 3 -155 27 -235 89 -294 320
-519 612 -596 110 -29 267 -36 370 -16 153 29 190 47 794 394 l315 181 115 5
c560 27 946 538 810 1072 -25 100 -97 249 -156 320 -24 30 -44 58 -44 63 0 5
21 35 46 68 220 283 238 691 43 990 -93 142 -208 242 -360 313 -127 60 -185
72 -349 77 -121 3 -157 1 -216 -15z m332 -1736 c61 -27 124 -86 156 -147 19
-36 23 -58 23 -138 0 -82 -4 -102 -25 -144 -30 -59 -90 -120 -144 -148 -59
-30 -181 -37 -244 -13 -34 13 -517 281 -540 300 -4 3 396 234 478 276 106 54
197 58 296 14z m-1301 -620 c80 -43 379 -213 445 -253 8 -5 13 -12 10 -15 -9
-8 -421 -242 -490 -278 -58 -30 -74 -34 -145 -34 -62 0 -91 5 -130 23 -133 61
-213 214 -185 356 26 133 128 233 262 255 82 13 125 3 233 -54z"/>
<path d="M4860 3300 l0 -580 130 0 130 0 0 230 0 230 200 0 200 0 0 120 0 120
-200 0 -200 0 0 110 0 110 208 2 207 3 0 115 0 115 -337 3 -338 2 0 -580z"/>
<path d="M5970 3301 l0 -581 130 0 130 0 2 202 3 201 134 -201 134 -202 164 0
164 0 -19 28 c-11 15 -84 108 -161 207 -77 99 -141 183 -141 186 0 4 20 14 44
23 67 26 131 87 168 164 31 63 33 72 33 177 0 100 -2 115 -28 167 -36 74 -107
144 -177 177 -54 25 -61 25 -317 29 l-263 4 0 -581z m458 355 c112 -58 117
-231 9 -296 -25 -16 -50 -20 -119 -20 l-88 0 0 163 c0 90 3 167 8 171 12 13
156 -1 190 -18z"/>
<path d="M7524 3843 c-8 -21 -38 -94 -66 -163 -27 -69 -117 -289 -198 -490
-82 -201 -158 -389 -169 -417 l-21 -53 139 0 138 0 23 63 c12 34 31 86 42 115
l19 52 218 0 218 0 23 -62 c12 -35 31 -87 42 -115 l19 -53 139 0 140 0 -10 23
c-5 12 -110 272 -234 577 l-225 555 -110 3 -110 3 -17 -38z m197 -481 c37
-103 65 -190 62 -194 -2 -5 -65 -8 -139 -8 -74 0 -134 3 -134 8 -1 16 135 390
140 385 3 -2 35 -89 71 -191z"/>
<path d="M8590 3300 l0 -580 130 0 130 0 0 230 0 230 190 0 191 0 -3 -230 -3
-230 138 0 137 0 0 580 0 580 -135 0 -135 0 -2 -227 -3 -228 -187 -3 -188 -2
0 230 0 230 -130 0 -130 0 0 -580z"/>
<path d="M4860 1250 l0 -580 130 0 130 0 0 230 0 230 200 0 200 0 0 120 0 120
-200 0 -200 0 0 110 0 110 210 0 211 0 -3 118 -3 117 -337 3 -338 2 0 -580z"/>
<path d="M5950 1428 c0 -360 2 -411 18 -469 24 -85 59 -144 117 -198 55 -50
110 -77 203 -96 248 -53 481 32 566 207 49 100 57 184 54 588 l-3 365 -127 3
-126 3 -4 -388 c-4 -427 -5 -434 -68 -486 -38 -32 -89 -47 -160 -47 -97 1
-153 31 -187 98 -16 33 -19 76 -23 427 l-5 390 -127 3 -128 3 0 -403z"/>
<path d="M7340 1250 l0 -580 125 0 125 0 0 353 c1 279 3 349 13 336 7 -9 95
-167 197 -352 l185 -337 133 0 132 0 -2 578 -3 577 -127 3 -128 3 0 -353 c0
-250 -3 -349 -11 -341 -6 6 -95 163 -198 349 l-187 339 -127 3 -127 3 0 -581z"/>
<path d="M8700 1250 l0 -580 216 0 c240 0 292 8 404 63 87 43 185 141 233 233
144 278 53 622 -206 778 -112 67 -215 86 -464 86 l-183 0 0 -580z m489 295
c61 -34 111 -90 143 -161 31 -69 31 -196 0 -275 -25 -62 -94 -139 -151 -169
-39 -20 -134 -40 -188 -40 l-33 0 0 343 0 342 87 -5 c72 -5 98 -11 142 -35z"/>
</g>
</svg>
